HIERARCHY
ROOT Hips
{
	OFFSET	0.000000	0.000000	0.000000
	CHANNELS 6 Xposition Yposition Zposition Zrotation Xrotation Yrotation
	JOINT LeftUpLeg
	{
		OFFSET	12.830505	-7.049846	-1.643436
		CHANNELS 3 Zrotation Xrotation Yrotation
		JOINT LeftLeg
		{
			OFFSET	0.620834	-39.957500	-1.919341
			CHANNELS 3 Zrotation Xrotation Yrotation
			JOINT LeftFoot
			{
				OFFSET	-0.413890	-44.704761	-3.870325
				CHANNELS 3 Zrotation Xrotation Yrotation
				JOINT LeftFootHeel
				{
					OFFSET	0.164738	-8.918193	-6.555130
					CHANNELS 3 Zrotation Xrotation Yrotation
					End Site
					{
						OFFSET	-0.604053	0.000000	21.044330
					}
				}
			}
		}
	}
	JOINT RightUpLeg
	{
		OFFSET	-12.830505	-7.049846	-1.643436
		CHANNELS 3 Zrotation Xrotation Yrotation
		JOINT RightLeg
		{
			OFFSET	-0.620834	-39.957500	-1.919341
			CHANNELS 3 Zrotation Xrotation Yrotation
			JOINT RightFoot
			{
				OFFSET	0.413890	-44.704761	-3.870325
				CHANNELS 3 Zrotation Xrotation Yrotation
				JOINT RightFootHeel
				{
					OFFSET	-0.164738	-8.918193	-6.555130
					CHANNELS 3 Zrotation Xrotation Yrotation
					End Site
					{
						OFFSET	0.604053	0.000000	21.044330
					}
				}
			}
		}
	}
	JOINT Spine
	{
		OFFSET	0.000000	12.498170	1.820647
		CHANNELS 3 Zrotation Xrotation Yrotation
		JOINT Spine1
		{
			OFFSET	0.000000	7.620000	0.000000
			CHANNELS 3 Zrotation Xrotation Yrotation
			JOINT LeftShoulder
			{
				OFFSET	9.167800	29.136339	-5.551221
				CHANNELS 3 Zrotation Xrotation Yrotation
				JOINT LeftArm
				{
					OFFSET	12.133453	-3.880866	1.461963
					CHANNELS 3 Zrotation Xrotation Yrotation
					JOINT LeftForeArm
					{
						OFFSET	2.507115	-31.664908	-1.069404
						CHANNELS 3 Zrotation Xrotation Yrotation
						JOINT LeftHand
						{
							OFFSET	4.116172	-24.512624	5.009439
							CHANNELS 3 Zrotation Xrotation Yrotation
							End Site
							{
								OFFSET	-0.213136	-10.931856	2.182134
							}
						}
					}
				}
			}
			JOINT RightShoulder
			{
				OFFSET	-9.167800	29.136339	-5.551221
				CHANNELS 3 Zrotation Xrotation Yrotation
				JOINT RightArm
				{
					OFFSET	-12.133453	-3.880866	1.461963
					CHANNELS 3 Zrotation Xrotation Yrotation
					JOINT RightForeArm
					{
						OFFSET	-2.507115	-31.664908	-1.069404
						CHANNELS 3 Zrotation Xrotation Yrotation
						JOINT RightHand
						{
							OFFSET	-4.116172	-24.512624	5.009439
							CHANNELS 3 Zrotation Xrotation Yrotation
							End Site
							{
								OFFSET	0.213136	-10.931856	2.182134
							}
						}
					}
				}
			}
			JOINT Neck
			{
				OFFSET	0.000000	32.926272	-3.635654
				CHANNELS 3 Zrotation Xrotation Yrotation
				JOINT Head
				{
					OFFSET	0.000000	12.481178	4.646143
					CHANNELS 3 Zrotation Xrotation Yrotation
					End Site
					{
						OFFSET	0.000000	17.715204	-2.222063
					}
				}
			}
		}
	}
}
MOTION
Frames:     18
Frame Time: 0.016667
0.000000	103.156832	0.000000	-0.051754	-0.088991	-0.075705	0.012910	-0.027286	0.261430	0.438079	0.590625	-0.053161	-0.398396	-0.474814	-0.136771	0.	0.	0.	0.043561	-0.155532	-0.272288	0.173371	0.610914	0.157713	-0.167467	-0.365826	0.188405	0.	0.	0.	-0.000000	0.000001	0.000001	-0.086103	-0.195088	0.255685	-0.045864	0.094050	0.227744	0.372321	0.646859	0.756715	-0.450018	-1.002893	-0.401720	-2.303473	-0.362650	-0.497021	-0.114216	0.531141	0.161875	-0.018796	-0.364718	-0.001730	0.193330	-1.008753	0.901981	-0.354578	-0.494581	0.754129	0.785529	0.791338	-0.019120	-0.972551	1.130042	0.249640	
0.000000	103.156832	0.000000	-0.051754	-0.088991	-0.075705	0.012910	-0.027286	0.261430	0.438079	0.590625	-0.053161	-0.398396	-0.474814	-0.136771	0.	0.	0.	0.043561	-0.155532	-0.272288	0.173371	0.610914	0.157713	-0.167467	-0.365826	0.188405	0.	0.	0.	-0.000000	0.000001	0.000001	-0.081631	-0.199654	0.286025	-0.057750	0.087178	0.204696	0.376149	0.647347	0.764399	-0.445714	-0.991549	-0.397343	-2.306093	-0.360045	-0.493040	-0.118385	0.535790	0.131557	-0.038407	-0.381326	0.011185	0.206470	-0.993008	0.888229	-0.355786	-0.529288	0.750066	0.790443	0.791233	-0.027234	-0.994048	1.140615	0.240957	
0.000000	103.156832	0.000000	-0.051754	-0.088991	-0.075705	0.012910	-0.027286	0.261430	0.438079	0.590625	-0.053161	-0.398396	-0.474814	-0.136771	0.	0.	0.	0.043561	-0.155532	-0.272288	0.173371	0.610914	0.157713	-0.167467	-0.365826	0.188405	0.	0.	0.	-0.000000	0.000001	0.000001	-0.078934	-0.202409	0.304352	-0.061160	0.086882	0.186916	0.375283	0.646636	0.772739	-0.444340	-0.988827	-0.398740	-2.307234	-0.357179	-0.484944	-0.120895	0.538598	0.113246	-0.043970	-0.383219	0.010715	0.212858	-0.997857	0.889424	-0.349582	-0.537921	0.768659	0.794874	0.790476	-0.028509	-1.007426	1.147314	0.231041	
0.000000	103.156832	0.000000	-0.051754	-0.088991	-0.075705	0.012910	-0.027286	0.261430	0.438079	0.590625	-0.053161	-0.398396	-0.474814	-0.136771	0.	0.	0.	0.043561	-0.155532	-0.272288	0.173371	0.610914	0.157713	-0.167467	-0.365826	0.188405	0.	0.	0.	-0.000000	0.000001	0.000001	-0.076479	-0.204912	0.321013	-0.063576	0.089415	0.170266	0.371086	0.635228	0.791115	-0.440378	-0.977854	-0.413508	-2.310153	-0.353086	-0.451665	-0.146146	0.523930	0.121417	-0.052850	-0.390770	-0.015116	0.246948	-1.006413	0.914346	-0.377995	-0.507049	0.800151	0.799439	0.789522	-0.028332	-1.040773	1.163122	0.242420	
0.000000	103.156832	0.000000	-0.051754	-0.088991	-0.075705	0.012910	-0.027286	0.261430	0.438079	0.590625	-0.053161	-0.398396	-0.474814	-0.136771	0.	0.	0.	0.043561	-0.155532	-0.272288	0.173371	0.610914	0.157713	-0.167467	-0.365826	0.188405	0.	0.	0.	-0.000000	0.000001	0.000001	-0.074178	-0.207242	0.336575	-0.065839	0.091776	0.154714	0.368095	0.621179	0.789749	-0.437168	-0.963858	-0.412002	-2.310153	-0.353086	-0.451665	-0.160096	0.517459	0.118616	-0.059237	-0.388078	-0.029275	0.262166	-0.997168	0.946215	-0.386544	-0.510635	0.793466	0.803261	0.788829	-0.029227	-1.057842	1.171437	0.239742	
0.000000	103.156832	0.000000	-0.051754	-0.088991	-0.075705	0.012910	-0.027286	0.261430	0.438079	0.590625	-0.053161	-0.398396	-0.474814	-0.136771	0.	0.	0.	0.043561	-0.155532	-0.272288	0.173371	0.610914	0.157713	-0.167467	-0.365826	0.188405	0.	0.	0.	-0.000000	0.000001	0.000001	-0.072612	-0.208819	0.347136	-0.067379	0.093374	0.144161	0.366680	0.614524	0.789100	-0.435649	-0.957229	-0.411284	-2.310153	-0.353086	-0.451665	-0.166931	0.515045	0.113873	-0.069570	-0.389366	-0.036356	0.281946	-1.030002	0.959785	-0.401788	-0.473032	0.806448	0.791770	0.785884	-0.025118	-1.052302	1.178299	0.230361	
0.000000	103.156832	0.000000	-0.051754	-0.088991	-0.075705	0.012910	-0.027286	0.261430	0.438079	0.590625	-0.053161	-0.398396	-0.474814	-0.136771	0.	0.	0.	0.043561	-0.155532	-0.272288	0.173371	0.610914	0.157713	-0.167467	-0.365826	0.188405	0.	0.	0.	-0.000000	0.000001	0.000001	-0.072612	-0.208819	0.347136	-0.067379	0.093374	0.144161	0.365995	0.611279	0.788785	-0.434914	-0.953996	-0.410938	-2.310153	-0.353086	-0.451665	-0.180885	0.504568	0.128948	-0.071084	-0.384118	-0.052590	0.302313	-1.065207	0.965580	-0.407471	-0.432567	0.805123	0.752436	0.784456	-0.041604	-1.015586	1.180467	0.249779	
0.000000	103.156832	0.000000	-0.051754	-0.088991	-0.075705	0.012910	-0.027286	0.261430	0.438079	0.590625	-0.053161	-0.398396	-0.474814	-0.136771	0.	0.	0.	0.043561	-0.155532	-0.272288	0.173371	0.610914	0.157713	-0.167467	-0.365826	0.188405	0.	0.	0.	-0.000000	0.000001	0.000001	-0.072612	-0.208819	0.347136	-0.067379	0.093374	0.144161	0.365995	0.611279	0.788785	-0.434914	-0.953996	-0.410938	-2.310153	-0.353086	-0.451665	-0.182881	0.503064	0.131110	-0.083520	-0.387505	-0.055951	0.310115	-1.067458	0.976829	-0.402184	-0.425527	0.797873	0.767662	0.791921	-0.061560	-1.031205	1.172638	0.269394	
0.000000	103.156832	0.000000	-0.051754	-0.088991	-0.075705	0.012910	-0.027286	0.261430	0.438079	0.590625	-0.053161	-0.398396	-0.474814	-0.136771	0.	0.	0.	0.043561	-0.155532	-0.272288	0.173371	0.610914	0.157713	-0.167467	-0.365826	0.188405	0.	0.	0.	-0.000000	0.000001	0.000001	-0.072612	-0.208819	0.347136	-0.067379	0.093374	0.144161	0.365995	0.611279	0.788785	-0.434914	-0.953996	-0.410938	-2.310153	-0.353086	-0.451665	-0.182881	0.503064	0.131110	-0.089892	-0.389664	-0.056491	0.315845	-1.064593	0.984203	-0.401597	-0.426186	0.790967	0.767662	0.791921	-0.061560	-1.031205	1.172638	0.269394	
0.000000	103.156832	0.000000	-0.051754	-0.088991	-0.075705	0.012910	-0.027286	0.261430	0.438079	0.590625	-0.053161	-0.398396	-0.474814	-0.136771	0.	0.	0.	0.043561	-0.155532	-0.272288	0.173371	0.610914	0.157713	-0.167467	-0.365826	0.188405	0.	0.	0.	-0.000000	0.000001	0.000001	-0.072612	-0.208819	0.347136	-0.067379	0.093374	0.144161	0.365995	0.611279	0.788785	-0.434914	-0.953996	-0.410938	-2.310153	-0.353086	-0.451665	-0.182881	0.503064	0.131110	-0.092942	-0.390699	-0.056742	0.317523	-1.062100	0.998913	-0.406308	-0.427931	0.789206	0.731000	0.784348	-0.047595	-0.994281	1.180481	0.256066	
0.000000	103.156832	0.000000	-0.051754	-0.088991	-0.075705	0.012910	-0.027286	0.261430	0.438079	0.590625	-0.053161	-0.398396	-0.474814	-0.136771	0.	0.	0.	0.043561	-0.155532	-0.272288	0.173371	0.610914	0.157713	-0.167467	-0.365826	0.188405	0.	0.	0.	-0.000000	0.000001	0.000001	-0.072612	-0.208819	0.347136	-0.067379	0.093374	0.144161	0.365995	0.611279	0.788785	-0.434914	-0.953996	-0.410938	-2.310153	-0.353086	-0.451665	-0.182881	0.503064	0.131110	-0.092942	-0.390699	-0.056742	0.316846	-1.061374	1.006105	-0.408702	-0.428803	0.788439	0.719182	0.781601	-0.043153	-0.982379	1.183312	0.251834	
0.000000	103.156832	0.000000	-0.051754	-0.088991	-0.075705	0.012910	-0.027286	0.261430	0.438079	0.590625	-0.053161	-0.398396	-0.474814	-0.136771	0.	0.	0.	0.043561	-0.155532	-0.272288	0.173371	0.610914	0.157713	-0.167467	-0.365826	0.188405	0.	0.	0.	-0.000000	0.000001	0.000001	-0.072612	-0.208819	0.347136	-0.067379	0.093374	0.144161	0.365995	0.611279	0.788785	-0.434914	-0.953996	-0.410938	-2.310153	-0.353086	-0.451665	-0.182881	0.503064	0.131110	-0.092942	-0.390699	-0.056742	0.316188	-1.060679	1.013067	-0.415058	-0.429890	0.796387	0.685969	0.773863	-0.030670	-0.948927	1.191274	0.239931	
0.000000	103.156832	0.000000	-0.051754	-0.088991	-0.075705	0.012910	-0.027286	0.261430	0.438079	0.590625	-0.053161	-0.398396	-0.474814	-0.136771	0.	0.	0.	0.043561	-0.155532	-0.272288	0.173371	0.610914	0.157713	-0.167467	-0.365826	0.188405	0.	0.	0.	-0.000000	0.000001	0.000001	-0.072612	-0.208819	0.347136	-0.067379	0.093374	0.144161	0.365995	0.611279	0.788785	-0.434914	-0.953996	-0.410938	-2.310153	-0.353086	-0.451665	-0.182881	0.503064	0.131110	-0.092942	-0.390699	-0.056742	0.316188	-1.060679	1.013067	-0.415058	-0.429890	0.796387	0.678449	0.772105	-0.027846	-0.941353	1.193079	0.237238	
0.000000	103.156832	0.000000	-0.051754	-0.088991	-0.075705	0.012910	-0.027286	0.261430	0.438079	0.590625	-0.053161	-0.398396	-0.474814	-0.136771	0.	0.	0.	0.043561	-0.155532	-0.272288	0.173371	0.610914	0.157713	-0.167467	-0.365826	0.188405	0.	0.	0.	-0.000000	0.000001	0.000001	-0.072612	-0.208819	0.347136	-0.067379	0.093374	0.144161	0.365995	0.611279	0.788785	-0.434914	-0.953996	-0.410938	-2.310153	-0.353086	-0.451665	-0.182881	0.503064	0.131110	-0.092942	-0.390699	-0.056742	0.316188	-1.060679	1.013067	-0.415058	-0.429890	0.796387	0.662306	0.768329	-0.021779	-0.925094	1.196959	0.231449	
0.000000	103.156832	0.000000	-0.051754	-0.088991	-0.075705	0.012910	-0.027286	0.261430	0.438079	0.590625	-0.053161	-0.398396	-0.474814	-0.136771	0.	0.	0.	0.043561	-0.155532	-0.272288	0.173371	0.610914	0.157713	-0.167467	-0.365826	0.188405	0.	0.	0.	-0.000000	0.000001	0.000001	-0.072612	-0.208819	0.347136	-0.067379	0.093374	0.144161	0.365995	0.611279	0.788785	-0.434914	-0.953996	-0.410938	-2.310153	-0.353086	-0.451665	-0.182881	0.503064	0.131110	-0.092942	-0.390699	-0.056742	0.316188	-1.060679	1.013067	-0.415058	-0.429890	0.796387	0.654370	0.766466	-0.018796	-0.917098	1.198870	0.228602	
0.000000	103.156832	0.000000	-0.051754	-0.088991	-0.075705	0.012910	-0.027286	0.261430	0.438079	0.590625	-0.053161	-0.398396	-0.474814	-0.136771	0.	0.	0.	0.043561	-0.155532	-0.272288	0.173371	0.610914	0.157713	-0.167467	-0.365826	0.188405	0.	0.	0.	-0.000000	0.000001	0.000001	-0.072612	-0.208819	0.347136	-0.067379	0.093374	0.144161	0.365995	0.611279	0.788785	-0.434914	-0.953996	-0.410938	-2.310153	-0.353086	-0.451665	-0.182881	0.503064	0.131110	-0.092942	-0.390699	-0.056742	0.315785	-1.057415	1.012694	-0.414710	-0.433163	0.796730	0.632808	0.761400	-0.010688	-0.895377	1.204065	0.220860	
0.000000	103.156832	0.000000	-0.051754	-0.088991	-0.075705	0.012910	-0.027286	0.261430	0.438079	0.590625	-0.053161	-0.398396	-0.474814	-0.136771	0.	0.	0.	0.043561	-0.155532	-0.272288	0.173371	0.610914	0.157713	-0.167467	-0.365826	0.188405	0.	0.	0.	-0.000000	0.000001	0.000001	-0.072612	-0.208819	0.347136	-0.067379	0.093374	0.144161	0.365995	0.611279	0.788785	-0.434914	-0.953996	-0.410938	-2.309163	-0.370331	-0.493024	-0.182881	0.503064	0.131110	-0.092942	-0.390699	-0.056742	0.314571	-1.047591	1.011579	-0.413662	-0.443014	0.797749	0.625241	0.759620	-0.007841	-0.887754	1.205888	0.218142	
0.000000	103.156832	0.000000	-0.051754	-0.088991	-0.075705	0.012910	-0.027286	0.261430	0.438079	0.590625	-0.053161	-0.398396	-0.474814	-0.136771	0.	0.	0.	0.043561	-0.155532	-0.272288	0.173371	0.610914	0.157713	-0.167467	-0.365826	0.188405	0.	0.	0.	-0.000000	0.000001	0.000001	-0.072612	-0.208819	0.347136	-0.067379	0.093374	0.144161	0.369363	0.627137	0.790348	-0.438529	-0.969793	-0.412657	-2.305553	-0.390923	-0.566750	-0.182881	0.503064	0.131110	-0.092942	-0.390699	-0.056742	0.314571	-1.047591	1.011579	-0.413662	-0.443014	0.797749	0.613677	0.756896	-0.003490	-0.883354	1.211980	0.221621	
